<svg xmlns="http://www.w3.org/2000/svg" width="80" height="80" viewBox="0 0 80 80">
  <rect width="80" height="80" rx="10" fill="#f7f7f7"/>
  <g transform="translate(15, 12)">
    <path d="M40,18 C36,8 24,8 20,18 L40,18 Z" fill="#333"/>
    <path d="M25,25 C22,25 20,27 20,30 C20,33 22,35 25,35 C28,35 30,33 30,30 C30,27 28,25 25,25 Z" fill="#333"/>
    <path d="M50,25 C47,25 45,27 45,30 C45,33 47,35 50,35 C53,35 55,33 55,30 C55,27 53,25 50,25 Z" fill="#333"/>
    <path d="M30,40 L45,40 C45,45 40,50 37.5,50 C35,50 30,45 30,40 Z" fill="#333"/>
    <path d="M0,30 L15,15 L15,40 L0,30 Z" fill="#333"/>
    <path d="M75,30 L60,15 L60,40 L75,30 Z" fill="#333"/>
  </g>
</svg> 