<?xml version="1.0" encoding="UTF-8"?>
<svg width="512" height="512" viewBox="0 0 512 512" fill="none" xmlns="http://www.w3.org/2000/svg">
  <rect width="512" height="512" rx="256" fill="black"/>
  <path d="M370.941 169.03C353.302 168.075 336.997 159.784 325.042 146.4C313.087 133.016 306.517 115.481 306.844 97.4429H241.249V344.753C241.249 378.91 213.763 406.486 179.716 406.486C145.67 406.486 118.185 378.91 118.185 344.753C118.185 310.595 145.67 283.019 179.716 283.019C187.211 283.019 194.372 284.364 201.042 287.052V220.22C194.114 219.025 187.075 218.426 180.025 218.427C110.174 218.427 53.5 275.369 53.5 345.543C53.5 415.716 110.174 472.659 180.025 472.659C249.876 472.659 306.55 415.716 306.55 345.543V218.033C326.979 233.015 351.629 241.505 377.093 242.038V176.856C375.087 176.856 373.081 176.165 370.941 175.704V169.03Z" fill="white"/>
</svg> 