<svg xmlns="http://www.w3.org/2000/svg" width="64" height="64" viewBox="0 0 64 64">
  <path d="M25,20 C18.926,20 14,24.926 14,31 C14,37.074 18.926,42 25,42 L31,42 L31,38 L25,38 C21.134,38 18,34.866 18,31 C18,27.134 21.134,24 25,24 L31,24 L31,20 L25,20 Z" fill="#3c8cff"/>
  <path d="M33,20 L33,24 L39,24 C42.866,24 46,27.134 46,31 C46,34.866 42.866,38 39,38 L33,38 L33,42 L39,42 C45.074,42 50,37.074 50,31 C50,24.926 45.074,20 39,20 L33,20 Z" fill="#3c8cff"/>
  <rect x="22" y="29" width="20" height="4" rx="2" fill="#3c8cff"/>
</svg> 