<?xml version="1.0" encoding="UTF-8"?>
<svg width="512" height="512" viewBox="0 0 512 512" fill="none" xmlns="http://www.w3.org/2000/svg">
  <rect width="512" height="512" rx="256" fill="#FE2C55"/>
  <path d="M256 120C215.458 120 180 127.969 154.058 143.908C128.116 159.847 112 183.229 112 210C112 236.771 128.116 260.153 154.058 276.092C180 292.031 215.458 300 256 300C296.542 300 332 292.031 357.942 276.092C383.884 260.153 400 236.771 400 210C400 183.229 383.884 159.847 357.942 143.908C332 127.969 296.542 120 256 120Z" fill="white"/>
  <path d="M256 320C215.458 320 180 327.969 154.058 343.908C128.116 359.847 112 383.229 112 410C112 436.771 128.116 460.153 154.058 476.092C180 492.031 215.458 500 256 500C296.542 500 332 492.031 357.942 476.092C383.884 460.153 400 436.771 400 410C400 383.229 383.884 359.847 357.942 343.908C332 327.969 296.542 320 256 320Z" fill="white"/>
</svg> 