<?xml version="1.0" encoding="UTF-8"?>
<svg width="512" height="512" viewBox="0 0 512 512" fill="none" xmlns="http://www.w3.org/2000/svg">
  <rect width="512" height="512" rx="256" fill="#FC3E3E"/>
  <path d="M270.083 387.333C270.083 387.333 267 334.333 254 314.667C241 295 214.167 272.333 162.667 265.667C111.167 259 137.417 218.667 198.417 209C259.417 199.333 299.083 216.667 309.083 163.667C319.083 110.667 379.083 128.667 380.75 213.333C382.417 298 270.083 387.333 270.083 387.333Z" fill="white"/>
  <path d="M239.083 338.667C252.083 356.333 286.083 335.667 288.417 307.333C290.75 279 264.75 274 264.75 274C248.75 285.333 226.083 321 239.083 338.667Z" fill="#FC3E3E"/>
</svg> 